<svg xmlns="http://www.w3.org/2000/svg" viewBox="0 0 128 128" role="img" aria-label="Numerical methods icon">
  <rect width="128" height="128" rx="16" fill="#0b1220"/>
  <rect x="28" y="24" width="72" height="80" rx="10" fill="#111827" stroke="#3b82f6" stroke-width="2"/>
  <rect x="38" y="34" width="52" height="16" rx="4" fill="#0f2744" stroke="#60a5fa"/>
  <g fill="#e5e7eb">
    <rect x="38" y="58" width="16" height="16" rx="3"/>
    <rect x="58" y="58" width="16" height="16" rx="3"/>
    <rect x="78" y="58" width="16" height="16" rx="3"/>
    <rect x="38" y="78" width="16" height="16" rx="3"/>
    <rect x="58" y="78" width="16" height="16" rx="3"/>
    <rect x="78" y="78" width="16" height="16" rx="3"/>
  </g>
  <path d="M44 66h8M48 62v8" stroke="#3b82f6" stroke-width="2" stroke-linecap="round"/>
  <path d="M60 66h12" stroke="#22c55e" stroke-width="2" stroke-linecap="round"/>
  <path d="M80 64l8 8M88 64l-8 8" stroke="#f59e0b" stroke-width="2" stroke-linecap="round"/>
</svg>

