<svg xmlns="http://www.w3.org/2000/svg" viewBox="0 0 128 128" role="img" aria-label="Spatial hashing collision icon">
  <defs>
    <linearGradient id="grid" x1="0" y1="0" x2="1" y2="1">
      <stop offset="0" stop-color="#06b6d4"/>
      <stop offset="1" stop-color="#3b82f6"/>
    </linearGradient>
  </defs>
  <rect width="128" height="128" rx="16" fill="#0b1220"/>
  <!-- Grid -->
  <g opacity="0.5" stroke="url(#grid)">
    <path d="M16 32h96M16 56h96M16 80h96M16 104h96" stroke-width="1.25"/>
    <path d="M32 16v96M56 16v96M80 16v96M104 16v96" stroke-width="1.25"/>
  </g>
  <!-- Highlighted hashed cells -->
  <rect x="56" y="56" width="24" height="24" fill="#1f2937" stroke="#22c55e" stroke-width="2"/>
  <rect x="80" y="32" width="24" height="24" fill="#1f2937" stroke="#f59e0b" stroke-width="2"/>
  <!-- Moving discs -->
  <circle cx="76" cy="68" r="10" fill="#22c55e" fill-opacity="0.85" stroke="#34d399"/>
  <circle cx="92" cy="44" r="10" fill="#f59e0b" fill-opacity="0.9" stroke="#fbbf24"/>
  <!-- Candidate pair link -->
  <path d="M84 60L88 52" stroke="#94a3b8" stroke-dasharray="4 3" stroke-width="2" stroke-linecap="round"/>
  <!-- Hash symbol subtly in background -->
  <path d="M42 24v80M58 24v80M24 42h80M24 58h80" stroke="#1f2937" stroke-width="6" stroke-linecap="round" opacity="0.35"/>
</svg>

